<mxfile host="drawio-plugin" modified="2022-11-23T04:41:52.993Z" agent="5.0 (Windows NT 6.2; Win64; x64) AppleWebKit/537.36 (KHTML, like Gecko) Chrome/98.0.4758.102 Safari/537.36" version="20.5.3" etag="KoXr3dsSsAilkRw1QNQJ" type="embed"><diagram id="LaYlkRAeTV3X1AM5GPvR" name="Page-1"><mxGraphModel dx="882" dy="735" grid="1" gridSize="10" guides="1" tooltips="1" connect="1" arrows="1" fold="1" page="1" pageScale="1" pageWidth="850" pageHeight="1100" math="0" shadow="0"><root><mxCell id="0"/><mxCell id="1" parent="0"/><mxCell id="2" value="t:TurnActionPanel" style="shape=umlLifeline;perimeter=lifelinePerimeter;whiteSpace=wrap;html=1;container=1;collapsible=0;recursiveResize=0;outlineConnect=0;" vertex="1" parent="1"><mxGeometry x="50" y="190" width="100" height="430" as="geometry"/></mxCell><mxCell id="3" value="" style="html=1;points=[];perimeter=orthogonalPerimeter;" vertex="1" parent="2"><mxGeometry x="45" y="70" width="10" height="40" as="geometry"/></mxCell><mxCell id="4" value="" style="endArrow=classic;html=1;rounded=0;exitX=1.2;exitY=0.275;exitDx=0;exitDy=0;exitPerimeter=0;" edge="1" parent="2" source="3"><mxGeometry width="50" height="50" relative="1" as="geometry"><mxPoint x="70" y="80" as="sourcePoint"/><mxPoint x="250" y="80" as="targetPoint"/><Array as="points"><mxPoint x="80" y="80"/></Array></mxGeometry></mxCell><mxCell id="5" value="actionPerformed(placeButton)" style="text;html=1;align=center;verticalAlign=middle;resizable=0;points=[];autosize=1;strokeColor=none;fillColor=none;" vertex="1" parent="1"><mxGeometry x="105" y="240" width="190" height="30" as="geometry"/></mxCell><mxCell id="6" value="tc:TurnActionController" style="shape=umlLifeline;perimeter=lifelinePerimeter;whiteSpace=wrap;html=1;container=1;collapsible=0;recursiveResize=0;outlineConnect=0;" vertex="1" parent="1"><mxGeometry x="240" y="180" width="140" height="460" as="geometry"/></mxCell><mxCell id="7" value="" style="html=1;points=[];perimeter=orthogonalPerimeter;" vertex="1" parent="6"><mxGeometry x="65" y="90" width="10" height="320" as="geometry"/></mxCell><mxCell id="8" value="" style="html=1;points=[];perimeter=orthogonalPerimeter;" vertex="1" parent="6"><mxGeometry x="75" y="310" width="10" height="40" as="geometry"/></mxCell><mxCell id="9" value="notifyControllerListeners(PlaceClickEvent)" style="edgeStyle=orthogonalEdgeStyle;html=1;align=left;spacingLeft=2;endArrow=block;rounded=0;entryX=1;entryY=0;" edge="1" parent="6" target="8"><mxGeometry relative="1" as="geometry"><mxPoint x="80" y="290" as="sourcePoint"/><Array as="points"><mxPoint x="110" y="290"/></Array></mxGeometry></mxCell><mxCell id="10" value="m:ScrabbleModel" style="shape=umlLifeline;perimeter=lifelinePerimeter;whiteSpace=wrap;html=1;container=1;collapsible=0;recursiveResize=0;outlineConnect=0;" vertex="1" parent="1"><mxGeometry x="1000" y="160" width="130" height="490" as="geometry"/></mxCell><mxCell id="11" value="" style="html=1;points=[];perimeter=orthogonalPerimeter;" vertex="1" parent="10"><mxGeometry x="60" y="380" width="10" height="130" as="geometry"/></mxCell><mxCell id="12" value="" style="html=1;points=[];perimeter=orthogonalPerimeter;" vertex="1" parent="10"><mxGeometry x="70.03" y="420" width="4.97" height="40" as="geometry"/></mxCell><mxCell id="13" value="handlePlace()" style="edgeStyle=orthogonalEdgeStyle;html=1;align=left;spacingLeft=2;endArrow=block;rounded=0;entryX=1;entryY=0;" edge="1" parent="10" target="12"><mxGeometry relative="1" as="geometry"><mxPoint x="70.00000000000003" y="400" as="sourcePoint"/><Array as="points"><mxPoint x="100.00000000000003" y="400"/></Array></mxGeometry></mxCell><mxCell id="14" value="ref" style="shape=umlFrame;whiteSpace=wrap;html=1;" vertex="1" parent="1"><mxGeometry x="900" y="530" width="300" height="200" as="geometry"/></mxCell><mxCell id="15" value="Reference handlePlace()" style="text;html=1;align=center;verticalAlign=middle;resizable=0;points=[];autosize=1;strokeColor=none;fillColor=none;" vertex="1" parent="1"><mxGeometry x="945" y="680" width="160" height="30" as="geometry"/></mxCell><mxCell id="16" value="handleControllerEvent(PlaceClickEvent)" style="html=1;verticalAlign=bottom;endArrow=block;rounded=0;exitX=1.6;exitY=0.878;exitDx=0;exitDy=0;exitPerimeter=0;" edge="1" parent="1" source="7" target="10"><mxGeometry x="0.0309" y="10" width="80" relative="1" as="geometry"><mxPoint x="350" y="380" as="sourcePoint"/><mxPoint x="395" y="380" as="targetPoint"/><mxPoint as="offset"/><Array as="points"><mxPoint x="760" y="551"/></Array></mxGeometry></mxCell><mxCell id="17" value="board:BoardTileController" style="shape=umlLifeline;perimeter=lifelinePerimeter;whiteSpace=wrap;html=1;container=1;collapsible=0;recursiveResize=0;outlineConnect=0;" vertex="1" parent="1"><mxGeometry x="470" y="180" width="150" height="300" as="geometry"/></mxCell><mxCell id="18" value="" style="html=1;points=[];perimeter=orthogonalPerimeter;" vertex="1" parent="17"><mxGeometry x="70" y="90" width="10" height="150" as="geometry"/></mxCell><mxCell id="19" value="" style="html=1;points=[];perimeter=orthogonalPerimeter;" vertex="1" parent="17"><mxGeometry x="75" y="160" width="10" height="40" as="geometry"/></mxCell><mxCell id="20" value="notifyControllerListeners(C_BoardClickEvent)" style="edgeStyle=orthogonalEdgeStyle;html=1;align=left;spacingLeft=2;endArrow=block;rounded=0;entryX=1;entryY=0;" edge="1" parent="17" target="19"><mxGeometry relative="1" as="geometry"><mxPoint x="80" y="140" as="sourcePoint"/><Array as="points"><mxPoint x="110" y="140"/></Array></mxGeometry></mxCell><mxCell id="21" value="addControllerListener(this)" style="html=1;verticalAlign=bottom;endArrow=block;rounded=0;exitX=1;exitY=0.094;exitDx=0;exitDy=0;exitPerimeter=0;" edge="1" parent="1" source="7" target="17"><mxGeometry width="80" relative="1" as="geometry"><mxPoint x="320" y="310" as="sourcePoint"/><mxPoint x="440" y="340" as="targetPoint"/></mxGeometry></mxCell><mxCell id="22" value="Mouse Pressed on&amp;nbsp;&lt;br&gt;Board Spot" style="html=1;" vertex="1" parent="1"><mxGeometry x="850" y="280" width="110" height="50" as="geometry"/></mxCell><mxCell id="23" value="mousePressed(MouseEvent)" style="html=1;verticalAlign=bottom;endArrow=block;rounded=0;exitX=0;exitY=0.5;exitDx=0;exitDy=0;" edge="1" parent="1" source="22" target="17"><mxGeometry x="-0.0997" y="-5" width="80" relative="1" as="geometry"><mxPoint x="670" y="314.5" as="sourcePoint"/><mxPoint x="620" y="314.5" as="targetPoint"/><mxPoint as="offset"/></mxGeometry></mxCell><mxCell id="24" value="handleBoardClickEvent(C_BoardClickEvent)" style="html=1;verticalAlign=bottom;endArrow=block;rounded=0;entryX=1;entryY=0.434;entryDx=0;entryDy=0;entryPerimeter=0;exitX=0.1;exitY=0.887;exitDx=0;exitDy=0;exitPerimeter=0;" edge="1" parent="1" source="18" target="7"><mxGeometry width="80" relative="1" as="geometry"><mxPoint x="380" y="400" as="sourcePoint"/><mxPoint x="460" y="400" as="targetPoint"/></mxGeometry></mxCell></root></mxGraphModel></diagram></mxfile>